<?xml version="1.0" encoding="utf-8"?>
<!-- Generator: Adobe Illustrator 21.0.0, SVG Export Plug-In . SVG Version: 6.00 Build 0)  -->
<svg version="1.1" id="Layer_1" xmlns="http://www.w3.org/2000/svg" xmlns:xlink="http://www.w3.org/1999/xlink" x="0px" y="0px"
	 viewBox="0 0 64 64" style="enable-background:new 0 0 64 64;" xml:space="preserve">
<style type="text/css">
	.st0{fill:none;stroke:#141515;stroke-width:2;stroke-linecap:round;stroke-miterlimit:10;}
</style>
<path d="M37,19c0-2.8-2.2-5-5-5s-5,2.2-5,5s2.2,5,5,5S37,21.8,37,19z M29,19c0-1.7,1.3-3,3-3s3,1.3,3,3s-1.3,3-3,3S29,20.7,29,19z"
	/>
<path d="M32,48.6l0.8-0.9C33.3,47,46,31.3,46,21c0-8.3-6.3-15-14-15s-14,6.7-14,15c0,10.3,12.7,26,13.2,26.6L32,48.6z M32,8
	c6.6,0,12,5.8,12,13c0,8.2-9.2,20.8-12,24.4C29.2,41.8,20,29.2,20,21C20,13.8,25.4,8,32,8z"/>
<g>
	<path class="st0" d="M19.8,36c-9.3,2-15.8,6.3-15.8,11.3c0,6.9,12.1,12.5,27.1,12.5s27.1-5.6,27.1-12.5c0-4.8-5.9-9-14.5-11"/>
</g>
</svg>
