<?xml version="1.0" encoding="utf-8"?>
<!-- Generator: Adobe Illustrator 21.0.2, SVG Export Plug-In . SVG Version: 6.00 Build 0)  -->
<svg version="1.1" id="Layer_1" xmlns="http://www.w3.org/2000/svg" xmlns:xlink="http://www.w3.org/1999/xlink" x="0px" y="0px"
	 viewBox="0 0 64 64" style="enable-background:new 0 0 64 64;" xml:space="preserve">
<path d="M37,19c0-2.8-2.2-5-5-5s-5,2.2-5,5c0,2.8,2.2,5,5,5S37,21.8,37,19z M29,19c0-1.7,1.3-3,3-3s3,1.3,3,3c0,1.7-1.3,3-3,3
	S29,20.7,29,19z"/>
<path d="M32,48.6l0.8-0.9C33.3,47,46,31.3,46,21c0-8.3-6.3-15-14-15c-7.7,0-14,6.7-14,15C18,31.3,30.7,47,31.2,47.6L32,48.6z M32,8
	c6.6,0,12,5.8,12,13c0,8.2-9.2,20.8-12,24.4C29.2,41.8,20,29.2,20,21C20,13.8,25.4,8,32,8z"/>
<path d="M43,37L43,37c0,0.6,0.4,1,1,1h6.8c0.4,0,0.7,0.2,0.9,0.5l8.8,16c0.4,0.7-0.1,1.5-0.9,1.5H4.4c-0.8,0-1.2-0.8-0.9-1.5l8.8-16
	c0.2-0.3,0.5-0.5,0.9-0.5H20c0.6,0,1-0.4,1-1l0,0c0-0.6-0.4-1-1-1h-8c-0.4,0-0.7,0.2-0.9,0.5l-11,20C-0.2,57.2,0.2,58,1,58h62
	c0.8,0,1.2-0.8,0.9-1.5l-11-20C52.7,36.2,52.4,36,52,36h-8C43.4,36,43,36.4,43,37z"/>
</svg>
